HIERARCHY
ROOT Hips
{
	OFFSET 0.000000 0.000000 0.000000 
	CHANNELS 6 Xposition Yposition Zposition Zrotation Yrotation Xrotation
	JOINT LeftUpLeg
	{
		OFFSET 1.363060 -1.794630 0.839290 
		CHANNELS 3 Zrotation Yrotation Xrotation
		JOINT LeftLeg
		{
			OFFSET 2.448110 -6.726130 0.000000 
			CHANNELS 3 Zrotation Yrotation Xrotation
			JOINT LeftFoot
			{
				OFFSET 2.562200 -7.039590 0.000000 
				CHANNELS 3 Zrotation Yrotation Xrotation
				JOINT LeftToeBase
				{
					OFFSET 0.157640 -0.433110 2.322550 
					CHANNELS 3 Zrotation Yrotation Xrotation
					End Site
					{
						OFFSET 0.000000 0.000000 0.000000 
					}
				}
			}
		}
	}
	JOINT RightUpLeg
	{
		OFFSET -1.305520 -1.794630 0.839290 
		CHANNELS 3 Zrotation Yrotation Xrotation
		JOINT RightLeg
		{
			OFFSET -2.542530 -6.985550 0.000000 
			CHANNELS 3 Zrotation Yrotation Xrotation
			JOINT RightFoot
			{
				OFFSET -2.568260 -7.056230 0.000000 
				CHANNELS 3 Zrotation Yrotation Xrotation
				JOINT RightToeBase
				{
					OFFSET -0.164730 -0.452590 2.363150 
					CHANNELS 3 Zrotation Yrotation Xrotation
					End Site
					{
						OFFSET 0.000000 0.000000 0.000000 
					}
				}
			}
		}
	}
	JOINT Spine
	{
		OFFSET 0.028270 2.035590 -0.193380 
		CHANNELS 3 Zrotation Yrotation Xrotation
		JOINT Spine1
		{
			OFFSET 0.056720 2.048850 -0.042750 
			CHANNELS 3 Zrotation Yrotation Xrotation
			JOINT Neck1
			{
				OFFSET -0.054170 1.746240 0.172020 
				CHANNELS 3 Zrotation Yrotation Xrotation
				JOINT Head
				{
					OFFSET 0.104070 1.761360 -0.123970 
					CHANNELS 3 Zrotation Yrotation Xrotation
					End Site
					{
						OFFSET 0.000000 0.000000 0.000000 
					}
				}
			}
			JOINT LeftArm
			{
				OFFSET 3.362410 1.200890 -0.311210 
				CHANNELS 3 Zrotation Yrotation Xrotation
				JOINT LeftForeArm
				{
					OFFSET 4.983000 -0.000000 -0.000000 
					CHANNELS 3 Zrotation Yrotation Xrotation
					JOINT LeftHand
					{
						OFFSET 3.483560 -0.000000 -0.000000 
						CHANNELS 3 Zrotation Yrotation Xrotation
						JOINT LeftHandIndex1
						{
							OFFSET 0.715260 -0.000000 -0.000000 
							CHANNELS 3 Zrotation Yrotation Xrotation
							End Site
							{
								OFFSET 0.000000 0.000000 0.000000 
							}
						}
					}
				}
			}
			JOINT RightArm
			{
				OFFSET -3.136600 1.374050 -0.404650 
				CHANNELS 3 Zrotation Yrotation Xrotation
				JOINT RightForeArm
				{
					OFFSET -5.241900 -0.000000 -0.000000 
					CHANNELS 3 Zrotation Yrotation Xrotation
					JOINT RightHand
					{
						OFFSET -3.444170 -0.000000 -0.000000 
						CHANNELS 3 Zrotation Yrotation Xrotation
						JOINT RightHandIndex1
						{
							OFFSET -0.622530 -0.000000 -0.000000 
							CHANNELS 3 Zrotation Yrotation Xrotation
							End Site
							{
								OFFSET 0.000000 0.000000 0.000000 
							}
						}
					}
				}
			}
		}
	}
}
MOTION
Frames: 18
Frame Time: 0.041667
1.481499 17.940333 -0.679732 2.033440 -15.368865 7.926190 -21.271036 -4.265959 -15.982201 -0.091684 6.518773 21.329341 0.568083 -2.091676 0.019780 0.178300 -2.720200 -7.500700 5.981766 9.303409 -21.223216 -1.315715 -9.213642 27.074784 1.141710 -7.001537 -6.758819 -0.001000 -0.205800 0.565400 -0.733481 1.129353 0.384274 2.559525 0.976568 -0.617570 4.037933 -5.849266 13.304018 3.337800 -3.572900 10.347900 -75.040125 1.039471 14.694359 12.404602 -23.820721 -3.100633 0.095020 -1.660072 9.768979 -7.125000 0.000000 0.000000 74.962402 5.943276 25.731922 -20.526146 27.950643 -6.129404 0.582904 -0.616924 18.812561 7.125000 0.000000 0.000000 
1.481600 17.939529 -0.678426 2.125481 -15.526072 7.892898 -21.374982 -4.274654 -15.919110 -0.101498 6.492058 21.259024 0.544713 -1.969862 -0.058861 0.185500 -2.773700 -7.649400 5.868668 9.385831 -21.259092 -1.326735 -9.234499 27.126961 1.126573 -6.934211 -6.719753 -0.002700 -0.338300 0.929500 -0.745584 1.118868 0.421143 2.598657 0.966777 -0.551937 4.016557 -5.811876 13.180602 3.325500 -3.549000 10.302400 -74.981578 0.908565 14.932790 12.614926 -24.133005 -3.213466 0.052669 -1.620282 9.589150 -7.125000 0.000000 0.000000 75.014594 6.024220 25.774416 -20.424912 27.832909 -6.073548 0.580989 -0.618292 18.863010 7.125000 0.000000 0.000000 
1.481097 17.937719 -0.678526 2.232564 -15.666047 7.849230 -21.496116 -4.284834 -15.879718 -0.100856 6.488498 21.254560 0.527379 -1.869205 -0.206877 0.200200 -2.881000 -7.947600 5.745077 9.481505 -21.268895 -1.331019 -9.242285 27.140266 1.125188 -6.921460 -6.669768 -0.003700 -0.392900 1.079500 -0.738962 1.100650 0.458430 2.687709 0.952098 -0.485890 4.046482 -5.807104 13.219256 3.330000 -3.541000 10.340600 -75.001737 0.790416 15.109845 12.791793 -24.390429 -3.304756 0.002087 -1.584652 9.451964 -7.125000 0.000000 0.000000 75.051731 6.124002 25.787535 -20.324181 27.716338 -6.019355 0.574108 -0.623979 18.845382 7.125000 0.000000 0.000000 
1.481499 17.935106 -0.680034 2.289740 -15.793529 7.812226 -21.574614 -4.247270 -15.862081 -0.099061 6.488430 21.257544 0.497814 -1.727726 -0.188217 0.193300 -2.831100 -7.808900 5.679164 9.549423 -21.271924 -1.334140 -9.247311 27.151610 1.114549 -6.871496 -6.628906 -0.004400 -0.428600 1.177600 -0.715418 1.084991 0.479497 2.763238 0.941159 -0.456815 4.043950 -5.806252 13.341445 3.326800 -3.542800 10.412700 -74.979990 0.674579 15.516134 12.917444 -24.569197 -3.360324 -0.017138 -1.580599 9.165901 -7.125000 0.000000 0.000000 75.068667 6.238946 25.770120 -20.149134 27.513064 -5.926138 0.580101 -0.630881 18.823083 7.125000 0.000000 0.000000 
1.481600 17.935005 -0.682547 2.260332 -15.878350 7.819812 -21.547379 -4.229075 -15.870142 -0.095992 6.495718 21.275936 0.476797 -1.622471 -0.165005 0.186800 -2.783600 -7.676700 5.704168 9.635060 -21.277614 -1.333311 -9.244602 27.146571 1.129089 -6.925098 -6.575965 -0.003300 -0.372300 1.023000 -0.690174 1.072853 0.453533 2.786473 0.939320 -0.522363 3.960789 -5.790465 13.460425 3.285900 -3.541700 10.457700 -74.925187 0.655545 15.948667 13.090159 -24.817308 -3.439161 -0.016319 -1.585127 8.830685 -7.125000 0.000000 0.000000 75.129188 6.202630 25.729317 -20.021031 27.365300 -5.857078 0.583350 -0.628709 18.748148 7.125000 0.000000 0.000000 
1.482002 17.935307 -0.685764 2.216693 -15.937547 7.864823 -21.490079 -4.324689 -15.902340 -0.091034 6.512695 21.315325 0.449075 -1.471973 -0.219974 0.179400 -2.728200 -7.522900 5.747194 9.681270 -21.318814 -1.328538 -9.234694 27.119223 1.148956 -6.999249 -6.513183 -0.000900 -0.195500 0.537000 -0.653048 1.020165 0.390655 2.826080 0.919346 -0.647438 3.997800 -5.733655 13.505269 3.310100 -3.515700 10.466400 -74.900895 0.691076 16.146435 13.260447 -25.063671 -3.528736 -0.020644 -1.568096 8.694222 -7.125000 0.000000 0.000000 75.187820 6.070552 25.755545 -19.923352 27.257046 -5.805472 0.580283 -0.628653 18.692851 7.125000 0.000000 0.000000 
1.483007 17.934603 -0.684960 2.196637 -16.014112 7.903014 -21.470104 -4.359385 -15.952370 -0.083102 6.533646 21.369957 0.437900 -1.408157 -0.255181 0.175200 -2.696200 -7.434000 5.767810 9.679190 -21.368156 -1.323319 -9.225824 27.090752 1.156601 -7.024823 -6.464353 -0.000300 -0.117700 0.323300 -0.617691 0.967286 0.392001 2.860190 0.890530 -0.597275 4.074646 -5.679389 13.421223 3.358900 -3.487100 10.425000 -74.869975 0.583339 16.311218 13.360279 -25.205986 -3.589786 -0.035059 -1.536323 8.662845 -7.125000 0.000000 0.000000 75.204553 6.121179 25.763954 -19.761647 27.060393 -5.709707 0.582552 -0.588073 18.830904 7.125000 0.000000 0.000000 
1.482303 17.933799 -0.685161 2.167710 -16.071371 7.945158 -21.451542 -4.261745 -16.058876 -0.073690 6.557862 21.432490 0.452603 -1.460711 -0.355272 0.221100 -3.026700 -8.353200 5.792021 9.726088 -21.399870 -1.318621 -9.217444 27.068529 1.150935 -7.001900 -6.471202 -0.000900 -0.192600 0.529300 -0.604184 0.943052 0.433379 2.845367 0.873022 -0.479448 4.140897 -5.661443 13.233290 3.388900 -3.467400 10.340600 -74.775937 0.406210 16.629603 13.512183 -25.417072 -3.666662 -0.038050 -1.525906 8.561565 -7.125000 0.000000 0.000000 75.257868 6.265546 25.752529 -19.632268 26.881296 -5.618349 0.608511 -0.489891 18.987890 7.125000 0.000000 0.000000 
1.481399 17.933196 -0.690086 2.165785 -16.136356 7.954365 -21.443696 -4.176674 -16.146356 -0.065521 6.578522 21.486335 0.469980 -1.532122 -0.425778 0.232200 -3.101200 -8.560600 5.803272 9.768307 -21.415483 -1.316977 -9.213081 27.056742 1.160332 -7.033373 -6.413489 -0.000500 -0.139700 0.384000 -0.583161 0.908397 0.501905 2.871253 0.850019 -0.381335 4.134046 -5.642382 13.092277 3.374600 -3.446900 10.305700 -74.722467 0.172527 16.850061 13.693101 -25.661072 -3.751099 -0.036348 -1.528315 8.528841 -7.125000 0.000000 0.000000 75.274864 6.459107 25.821225 -19.543770 26.757181 -5.558330 0.635916 -0.429449 18.995247 7.125000 0.000000 0.000000 
1.480393 17.934301 -0.694409 2.151101 -16.216064 7.962262 -21.426671 -4.131546 -16.210996 -0.057836 6.597678 21.536033 0.460256 -1.487362 -0.373713 0.222800 -3.038600 -8.386300 5.818464 9.852815 -21.412321 -1.317181 -9.211499 27.058013 1.162213 -7.039556 -6.403898 -0.000100 -0.060400 0.165900 -0.543479 0.876711 0.533975 2.921993 0.833361 -0.356999 4.006937 -5.578289 13.079928 3.313400 -3.418000 10.323100 -74.689812 -0.001554 17.030033 13.839408 -25.858295 -3.821272 -0.039613 -1.525765 8.516475 -7.125000 0.000000 0.000000 75.280971 6.479840 25.864986 -19.503900 26.708748 -5.535635 0.643012 -0.419504 18.982664 7.125000 0.000000 0.000000 
1.478986 17.935106 -0.698530 2.168746 -16.308990 7.950158 -21.445316 -4.091831 -16.251794 -0.049466 6.615999 21.586407 0.441654 -1.397931 -0.347426 0.208500 -2.939800 -8.111100 5.791991 9.976382 -21.410946 -1.319575 -9.215110 27.073137 1.159475 -7.036579 -6.473438 -0.000300 -0.106600 0.292900 -0.506594 0.846272 0.538241 2.991698 0.818679 -0.370723 3.897032 -5.498932 13.124954 3.272500 -3.388600 10.346700 -74.649782 -0.130301 17.247828 13.957261 -26.017176 -3.877556 -0.037973 -1.526770 8.389793 -7.125000 0.000000 0.000000 75.309569 6.398850 25.809778 -19.466548 26.671594 -5.517086 0.624716 -0.421859 19.118798 7.125000 0.000000 0.000000 
1.478182 17.934502 -0.704360 2.210168 -16.400065 7.997523 -21.475940 -4.161699 -16.321226 -0.045651 6.628790 21.616357 0.417518 -1.273672 -0.384222 0.203800 -2.906600 -8.018900 5.728450 10.099952 -21.497446 -1.322361 -9.221122 27.087504 1.156117 -7.030206 -6.530221 -0.001900 -0.284300 0.781100 -0.502716 0.777343 0.533767 3.008606 0.781905 -0.354040 4.028051 -5.436836 13.077791 3.337900 -3.349600 10.333000 -74.564836 -0.258768 17.384915 14.109411 -26.222756 -3.954290 -0.015882 -1.533391 8.156864 -7.125000 0.000000 0.000000 75.392248 6.356375 25.882180 -19.427123 26.629649 -5.496791 0.607184 -0.427676 19.268269 7.125000 0.000000 0.000000 
1.476775 17.933397 -0.711699 2.199353 -16.461839 8.033605 -21.443027 -4.209462 -16.384251 -0.043447 6.639839 21.638060 0.400925 -1.187015 -0.388217 0.194900 -2.843300 -7.842800 5.729897 10.205625 -21.539708 -1.325027 -9.223967 27.102042 1.154736 -7.027574 -6.555751 -0.003600 -0.386400 1.061800 -0.502452 0.740089 0.540638 2.981656 0.761190 -0.366513 4.233345 -5.439714 13.027692 3.423100 -3.332500 10.332100 -74.395163 -0.450176 17.725126 14.218997 -26.370285 -4.012665 -0.001696 -1.531714 7.848667 -7.125000 0.000000 0.000000 75.463598 6.372691 25.909791 -19.350259 26.540347 -5.457421 0.605121 -0.433794 19.372622 7.125000 0.000000 0.000000 
1.475669 17.933598 -0.715719 2.205587 -16.513738 8.032607 -21.430168 -4.243915 -16.405531 -0.037817 6.654440 21.676280 0.392923 -1.143344 -0.409042 0.188200 -2.794300 -7.706500 5.721608 10.269118 -21.531979 -1.326167 -9.224701 27.109561 1.142664 -6.981230 -6.589986 -0.004800 -0.447300 1.229200 -0.466042 0.727464 0.567907 3.046461 0.753077 -0.363106 4.179957 -5.419788 12.895658 3.395200 -3.319300 10.282200 -74.304310 -0.682445 18.156922 14.296142 -26.468416 -4.048063 -0.000679 -1.532995 7.628345 -7.125000 0.000000 0.000000 75.447969 6.362174 25.988195 -19.303243 26.489010 -5.435273 0.607662 -0.444368 19.442346 7.125000 0.000000 0.000000 
1.475468 17.933296 -0.718333 2.229637 -16.594001 8.012155 -21.467623 -4.181283 -16.437566 -0.029341 6.671147 21.724923 0.388838 -1.117523 -0.454011 0.198600 -2.869900 -7.916800 5.714686 10.249372 -21.561294 -1.327048 -9.226361 27.110007 1.151125 -7.008476 -6.523412 -0.001800 -0.271900 0.747100 -0.429222 0.714032 0.580568 3.132199 0.746433 -0.372392 4.056029 -5.367743 12.695716 3.335500 -3.292700 10.176900 -74.262187 -0.790530 18.423623 14.416616 -26.627686 -4.104515 0.008768 -1.541183 7.618101 -7.125000 0.000000 0.000000 75.447182 6.245412 26.081605 -19.297969 26.491805 -5.435291 0.596865 -0.455934 19.622097 7.125000 0.000000 0.000000 
1.476976 17.931286 -0.721047 2.244629 -16.676991 7.991514 -21.500594 -4.142232 -16.458198 -0.022530 6.684750 21.764172 0.380777 -1.070910 -0.509648 0.213800 -2.976800 -8.214300 5.708783 10.195420 -21.596785 -1.328738 -9.228819 27.113640 1.141421 -6.954039 -6.413645 -0.000300 -0.117400 0.322400 -0.401381 0.696068 0.572482 3.168594 0.740047 -0.433795 4.022034 -5.264541 12.624329 3.328400 -3.243100 10.136100 -74.182782 -0.799324 18.797234 14.573141 -26.842138 -4.181390 0.010538 -1.544706 7.497146 -7.125000 0.000000 0.000000 75.439327 6.145040 26.061350 -19.238728 26.433958 -5.410522 0.583087 -0.479031 19.905906 7.125000 0.000000 0.000000 
1.477679 17.930381 -0.722957 2.250292 -16.779101 7.998663 -21.500180 -4.209797 -16.460649 -0.017988 6.696305 21.794228 0.360442 -0.959667 -0.589367 0.203400 -2.904200 -8.012200 5.696785 10.204375 -21.633502 -1.332298 -9.233718 27.126952 1.136694 -6.921741 -6.314475 -0.000000 0.020000 -0.054800 -0.345570 0.651071 0.570137 3.253059 0.717403 -0.454438 4.042825 -5.128997 12.731616 3.363700 -3.186400 10.196000 -74.117632 -0.826461 19.229169 14.729491 -27.056130 -4.259203 0.011798 -1.546872 7.168144 -7.125000 0.000000 0.000000 75.398462 6.172013 25.990471 -19.111622 26.292230 -5.350130 0.571866 -0.499905 20.354040 7.125000 0.000000 0.000000 
1.478383 17.930079 -0.725169 2.268404 -16.860313 7.973441 -21.510338 -4.306673 -16.425113 -0.010852 6.711658 21.837945 0.330707 -0.804170 -0.679943 0.189200 -2.801000 -7.725300 5.669419 10.245138 -21.640632 -1.337763 -9.241722 27.152567 1.120630 -6.848861 -6.271512 0.000000 0.021100 -0.058000 -0.279126 0.597422 0.592108 3.358431 0.688207 -0.442530 4.010087 -4.990114 12.832222 3.378100 -3.132400 10.260800 -74.056659 -0.916502 19.732120 14.872622 -27.248232 -4.328510 0.016450 -1.552953 6.722436 -7.125000 0.000000 0.000000 75.317330 6.214095 26.061512 -19.039235 26.212103 -5.315120 0.566013 -0.507523 20.657625 7.125000 0.000000 0.000000 
